<?xml version="1.0" encoding="UTF-8"?><svg id="Calque_1" xmlns="http://www.w3.org/2000/svg" viewBox="0 0 325.75 111.76"><defs><style>.cls-1{fill:none;stroke:#ef9005;stroke-miterlimit:10;stroke-width:3px;}.cls-2{fill:#ef9005;}.cls-3{fill:#1d1d1b;}</style></defs><g><path class="cls-3" d="M118.41,90.83c0-6.65-4.98-11.82-11.36-11.82-6.75,0-11.72,5.35-11.72,12.61s5.12,11.91,12.42,11.91c1.55,0,3.01-.29,4.38-.69,0,0,2.71-.82,3.33-1.14,.62-.32,.94-1.08,.7-1.75s-1.24-3.2-1.24-3.2c-.25-.65-.99-.98-1.64-.73,0,0-3.45,1.55-5.16,1.55-2.7,0-4.42-1.3-5.44-4.05h12.75c2.1,0,2.98-.79,2.98-2.7m-15.96-1.96c.97-2.98,2.46-4.28,4.74-4.28,1.4,0,2.7,.65,3.49,1.77,.42,.65,.65,1.21,.98,2.51h-9.21Z"/><path class="cls-3" d="M53.13,80.7c0-.7-.57-1.27-1.28-1.27h-4.11v-2.37c0-1.24,.49-1.74,1.72-1.79h2.39c.7,0,1.27-.57,1.27-1.28v-3.58c0-.7-.58-1.27-1.28-1.27l-3.74,.03c-4.33,.11-7.21,2.94-7.21,7.14v3.11h-3.19c-.7,0-1.27,.58-1.27,1.28v3.72c.01,.7,.58,1.27,1.28,1.27l3.17,.02v16.41c0,.7,.58,1.27,1.28,1.27h2.11s.05,0,.05,0h.05s2.09-.01,2.09-.01c.7,0,1.27-.57,1.27-1.27v-16.4s4.11,0,4.11,0c.7,0,1.27-.57,1.27-1.27v-3.74Z"/><path class="cls-3" d="M94.13,79.01h-2.25c-2.55,0-4.7,2.57-4.7,2.57h0s0-1.25,0-1.25c0-.7-.57-1.27-1.28-1.27h-4.3c-.7,0-1.27,.58-1.27,1.28v21.8c0,.7,.57,1.27,1.28,1.27h4.3c.7-.01,1.27-.58,1.27-1.28v-11.9c0-1,.08-2,1.35-3.27,1.65-1.65,5.6-1.56,5.6-1.56,.68,0,1.24-.54,1.24-1.21v-3.97c0-.67-.55-1.21-1.24-1.21"/><path class="cls-2" d="M154.64,103.45h-6.18c-.65,.01-1.18-.51-1.18-1.16v-6.18c-.01-.65,.51-1.18,1.16-1.18h6.18c.65-.01,1.18,.51,1.18,1.16v6.18c.01,.65-.51,1.18-1.16,1.18"/><path class="cls-3" d="M65.84,79.08c-6.74,0-12.21,5.47-12.21,12.21s5.47,12.21,12.21,12.21,12.21-5.47,12.21-12.21-5.46-12.21-12.21-12.21m0,6.74c3.02,0,5.47,2.45,5.47,5.47s-2.46,5.47-5.47,5.47-5.47-2.45-5.47-5.47,2.45-5.47,5.47-5.47"/><path class="cls-3" d="M154.63,91.19c.7,0,1.27-.57,1.27-1.28v-3.01c-.01-4.56-3.51-7.92-8.26-7.92-2.61,0-4.43,.75-7.18,2.98-.79-1.03-1.14-1.37-1.91-1.82-1.26-.74-2.98-1.16-4.66-1.16-2.42,0-4.1,.65-6,2.37v-1.07c0-.7-.58-1.27-1.28-1.27h-4.19c-.7,.01-1.27,.58-1.27,1.28v4.29s.01,0,.01,0v17.56c0,.7,.57,1.27,1.27,1.27h4.32c.7-.01,1.27-.58,1.27-1.28v-13.69c0-2.05,1.49-3.54,3.54-3.54,2.24,0,3.54,1.54,3.54,4.19v13.07c0,.7,.58,1.27,1.28,1.27h4.32c.7-.01,1.27-.58,1.27-1.28v-13.71c-.01-2.09,1.48-3.54,3.57-3.54s3.5,1.45,3.5,3.54v1.49c0,.7,.57,1.27,1.28,1.27h2.17"/></g><g><path class="cls-3" d="M50.21,26.68c0,1.57-3.38,3.11-6.78,3.11-3.21,0-5.77-1.25-7.51-3.7-1.44-1.97-2.23-4.62-2.23-7.44,0-6.55,4-11.11,9.73-11.11,3.11,0,6.33,1.67,6.33,3.25,0,.69-.49,1.25-1.08,1.25-.39,0-.72-.16-1.34-.69-1.28-1.08-2.33-1.48-3.9-1.48-4.06,0-6.85,3.54-6.85,8.72s2.72,8.88,6.78,8.88c1.44,0,2.59-.36,4.29-1.38,.85-.49,1.15-.62,1.51-.62,.59,0,1.05,.52,1.05,1.21Z"/><path class="cls-3" d="M54.41,22.48c.1,1.74,.49,2.75,1.41,3.67s2.03,1.31,3.47,1.31c1.67,0,2.85-.43,4.33-1.61,.62-.49,.89-.62,1.18-.62,.49,0,.95,.52,.95,1.15,0,1.57-3.61,3.41-6.65,3.41-4.42,0-7.37-3.31-7.37-8.29s3.08-8.42,7.28-8.42,7.08,3.44,7.08,7.9c0,1.11-.39,1.51-1.51,1.51h-10.16Zm8.98-2.03c-.13-3.18-1.8-5.05-4.52-5.05s-4.23,1.71-4.46,5.05h8.98Z"/><path class="cls-3" d="M71.42,15.24c1.25-1.48,2.65-2.16,4.49-2.16,3.44,0,5.7,2.46,5.7,6.19v9.08c0,.88-.52,1.44-1.34,1.44s-1.34-.56-1.34-1.44v-8.92c0-2.39-1.54-4.03-3.8-4.03s-3.77,1.64-3.77,4.03v8.92c0,.88-.52,1.44-1.34,1.44s-1.34-.56-1.34-1.44V14.52c0-.88,.52-1.44,1.34-1.44s1.34,.56,1.34,1.44v.66l.07,.07Z"/><path class="cls-3" d="M86.08,9.73c0-.88,.52-1.44,1.34-1.44s1.34,.56,1.34,1.44v3.54h1.11c.85,0,1.34,.43,1.34,1.18s-.49,1.15-1.34,1.15h-1.11v12.75c0,.88-.52,1.44-1.34,1.44s-1.34-.56-1.34-1.44V15.6h-1.11c-.85,0-1.34-.43-1.34-1.15s.49-1.18,1.34-1.18h1.11v-3.54Z"/></g><path class="cls-3" d="M95.75,15.89c.92-1.7,2.36-2.82,3.7-2.82,.85,0,1.48,.56,1.48,1.38s-.52,1.25-1.67,1.47c-2.26,.43-3.61,2.13-3.57,4.65v7.77c0,.88-.52,1.44-1.34,1.44s-1.34-.56-1.34-1.44V14.52c0-.88,.52-1.44,1.34-1.44s1.34,.56,1.34,1.44v1.38h.07Z"/><g><path class="cls-3" d="M103.98,22.48c.1,1.74,.49,2.75,1.41,3.67s2.03,1.31,3.47,1.31c1.67,0,2.85-.43,4.33-1.61,.62-.49,.89-.62,1.18-.62,.49,0,.95,.52,.95,1.15,0,1.57-3.6,3.41-6.65,3.41-4.42,0-7.37-3.31-7.37-8.29s3.08-8.42,7.28-8.42,7.08,3.44,7.08,7.9c0,1.11-.39,1.51-1.51,1.51h-10.16Zm8.98-2.03c-.13-3.18-1.8-5.05-4.52-5.05s-4.23,1.71-4.46,5.05h8.98Z"/><path class="cls-3" d="M136.62,7.34c0-.88,.52-1.44,1.34-1.44s1.34,.56,1.34,1.44V28.35c0,.88-.52,1.44-1.34,1.44s-1.34-.56-1.34-1.44v-.82h-.07c-.88,1.57-2.2,2.26-4.26,2.26-4.1,0-7.05-3.47-7.05-8.36s2.95-8.36,6.92-8.36c1.8,0,3.31,.75,4.39,2.23h.07V7.34Zm-8.69,14.09c0,3.67,1.77,6.03,4.49,6.03s4.46-2.39,4.46-6-1.77-6.06-4.49-6.06-4.46,2.39-4.46,6.03Z"/><path class="cls-3" d="M144.69,22.48c.1,1.74,.49,2.75,1.41,3.67s2.03,1.31,3.47,1.31c1.67,0,2.85-.43,4.33-1.61,.62-.49,.89-.62,1.18-.62,.49,0,.95,.52,.95,1.15,0,1.57-3.61,3.41-6.65,3.41-4.42,0-7.37-3.31-7.37-8.29s3.08-8.42,7.28-8.42,7.08,3.44,7.08,7.9c0,1.11-.39,1.51-1.51,1.51h-10.16Zm8.98-2.03c-.13-3.18-1.8-5.05-4.52-5.05s-4.23,1.71-4.46,5.05h8.98Z"/></g><g><path class="cls-3" d="M11.77,43.23c0,.62-.52,1.15-1.15,1.15-.3,0-.59-.1-1.11-.36-.88-.39-1.34-.52-2.1-.52-2.82,0-4.72,2.43-4.72,6.03s1.9,6.03,4.72,6.03c.82,0,1.38-.16,2.23-.62,.49-.26,.72-.33,.98-.33,.62,0,1.05,.46,1.05,1.08,0,1.25-1.84,2.2-4.23,2.2-4.46,0-7.44-3.31-7.44-8.29s2.95-8.42,7.44-8.42c2.49,0,4.33,.88,4.33,2.06Z"/><path class="cls-3" d="M27.99,49.52c0,4.85-3.02,8.36-7.18,8.36s-7.18-3.51-7.18-8.29,2.98-8.42,7.18-8.42,7.18,3.51,7.18,8.36Zm-11.67-.03c0,3.7,1.77,6.06,4.49,6.06s4.49-2.39,4.49-6.03-1.77-6.03-4.49-6.03-4.49,2.39-4.49,6Z"/></g><g><path class="cls-3" d="M32.88,44.58c1.15-1.44,2.26-2,4.06-2,1.97,0,3.31,.82,4.52,2.79,1.44-2,2.82-2.79,4.95-2.79,3.47,0,5.74,2.43,5.74,6.2v9.08c0,.88-.52,1.44-1.34,1.44s-1.34-.56-1.34-1.44v-9.14c0-2.36-1.31-3.8-3.51-3.8s-3.47,1.44-3.47,3.8v9.14c0,.88-.52,1.44-1.34,1.44s-1.34-.56-1.34-1.44v-9.14c0-2.36-1.31-3.8-3.51-3.8s-3.47,1.44-3.47,3.8v9.14c0,.88-.52,1.44-1.34,1.44s-1.34-.56-1.34-1.44v-13.83c0-.88,.52-1.44,1.34-1.44s1.34,.56,1.34,1.44v.49l.07,.07Z"/><path class="cls-3" d="M58.55,64.28c0,.88-.52,1.44-1.34,1.44s-1.34-.56-1.34-1.44v-20.26c0-.88,.52-1.44,1.34-1.44s1.34,.56,1.34,1.44v.82h.07c.88-1.57,2.2-2.26,4.26-2.26,4.1,0,7.05,3.51,7.05,8.36s-2.95,8.36-6.92,8.36c-1.8,0-3.34-.75-4.39-2.23h-.07v7.21Zm-.26-13.37c0,3.7,1.74,6.06,4.49,6.06s4.46-2.39,4.46-6.03-1.77-6.03-4.49-6.03-4.46,2.39-4.46,6Z"/><path class="cls-3" d="M74.51,51.99c.1,1.74,.49,2.75,1.41,3.67s2.03,1.31,3.47,1.31c1.67,0,2.85-.43,4.33-1.61,.62-.49,.89-.62,1.18-.62,.49,0,.95,.52,.95,1.15,0,1.57-3.61,3.41-6.65,3.41-4.42,0-7.37-3.31-7.37-8.29s3.08-8.42,7.28-8.42,7.08,3.44,7.08,7.9c0,1.11-.39,1.51-1.51,1.51h-10.16Zm8.98-2.03c-.13-3.18-1.8-5.05-4.52-5.05s-4.23,1.71-4.46,5.05h8.98Zm-5.67-9.77c-.59,.23-.75,.29-1.05,.29-.66,0-1.18-.59-1.18-1.31,0-.46,.36-.82,1.08-1.11l3.54-1.44c.49-.23,.75-.29,1.02-.29,.62,0,1.18,.59,1.18,1.31,0,.46-.36,.82-1.08,1.11l-3.51,1.44Z"/><path class="cls-3" d="M89.66,39.24c0-.88,.52-1.44,1.34-1.44s1.34,.56,1.34,1.44v3.54h1.11c.85,0,1.34,.43,1.34,1.18s-.49,1.15-1.34,1.15h-1.11v12.75c0,.88-.52,1.44-1.34,1.44s-1.34-.56-1.34-1.44v-12.75h-1.11c-.85,0-1.34-.43-1.34-1.15s.49-1.18,1.34-1.18h1.11v-3.54Z"/><path class="cls-3" d="M98.45,51.99c.1,1.74,.49,2.75,1.41,3.67s2.03,1.31,3.47,1.31c1.67,0,2.85-.43,4.33-1.61,.62-.49,.89-.62,1.18-.62,.49,0,.95,.52,.95,1.15,0,1.57-3.61,3.41-6.65,3.41-4.42,0-7.37-3.31-7.37-8.29s3.08-8.42,7.28-8.42,7.08,3.44,7.08,7.9c0,1.11-.39,1.51-1.51,1.51h-10.16Zm8.98-2.03c-.13-3.18-1.8-5.05-4.52-5.05s-4.23,1.71-4.46,5.05h8.98Z"/><path class="cls-3" d="M115.46,44.74c1.25-1.48,2.65-2.16,4.49-2.16,3.44,0,5.7,2.46,5.7,6.2v9.08c0,.88-.52,1.44-1.34,1.44s-1.34-.56-1.34-1.44v-8.92c0-2.39-1.54-4.03-3.8-4.03s-3.77,1.64-3.77,4.03v8.92c0,.88-.52,1.44-1.34,1.44s-1.34-.56-1.34-1.44v-13.83c0-.88,.52-1.44,1.34-1.44s1.34,.56,1.34,1.44v.66l.07,.07Z"/></g><g><path class="cls-3" d="M140.24,44.64c0,.62-.52,1.15-1.15,1.15-.29,0-.59-.1-1.11-.36-.88-.39-1.34-.52-2.1-.52-2.82,0-4.72,2.43-4.72,6.03s1.9,6.03,4.72,6.03c.82,0,1.38-.16,2.23-.62,.49-.26,.72-.33,.98-.33,.62,0,1.05,.46,1.05,1.08,0,1.25-1.84,2.2-4.23,2.2-4.46,0-7.44-3.31-7.44-8.29s2.95-8.42,7.44-8.42c2.49,0,4.33,.89,4.33,2.07Z"/><path class="cls-3" d="M144.51,51.99c.1,1.74,.49,2.75,1.41,3.67s2.03,1.31,3.47,1.31c1.67,0,2.85-.43,4.33-1.61,.62-.49,.89-.62,1.18-.62,.49,0,.95,.52,.95,1.15,0,1.57-3.61,3.41-6.65,3.41-4.42,0-7.37-3.31-7.37-8.29s3.08-8.42,7.28-8.42,7.08,3.44,7.08,7.9c0,1.11-.39,1.51-1.51,1.51h-10.16Zm8.98-2.03c-.13-3.18-1.8-5.05-4.52-5.05s-4.23,1.71-4.46,5.05h8.98Z"/></g><path class="cls-2" d="M198.67,83.34c1.02,.57,1.67,1.63,1.67,2.73,0,1.47-1.06,2.69-2.37,2.69-.53,0-.69-.04-2.16-.61-.86-.33-1.51-.45-2.16-.45-2.57,0-4.4,2.16-4.4,5.18s1.83,5.14,4.57,5.14c.73,0,1.55-.2,2.36-.57,1.02-.49,1.18-.53,1.71-.53,1.39,0,2.49,1.18,2.49,2.73,0,.82-.45,1.67-1.14,2.2-1.43,1.06-3.75,1.75-5.99,1.75-2.94,0-5.38-1.06-7.26-3.1-1.92-2.08-2.73-4.36-2.73-7.71s1.1-6.12,3.1-7.91c1.92-1.75,4.61-2.77,7.14-2.77,1.83,0,3.79,.45,5.18,1.22Z"/><g><path class="cls-2" d="M208.58,94.84c.9,2.41,2.41,3.55,4.77,3.55,1.43,0,1.79-.12,4.93-1.67,.37-.16,.86-.29,1.3-.29,1.22,0,2.41,1.18,2.41,2.45,0,2.45-4.36,4.73-8.97,4.73-6.4,0-10.89-4.32-10.89-10.44s4.36-11.05,10.27-11.05c5.59,0,9.95,4.53,9.95,10.36,0,1.67-.77,2.36-2.61,2.36h-11.17Zm7.87-4.08c-.29-1.14-.49-1.63-.86-2.2-.69-.98-1.83-1.55-3.06-1.55-2,0-3.3,1.14-4.16,3.75h8.07Z"/><path class="cls-2" d="M224.77,85.79c0-2.2,1.1-3.55,2.9-3.55,1.39,0,2.12,.57,2.89,2.28,1.59-1.75,3.06-2.41,5.34-2.41,4.97,0,8.85,4.61,8.85,10.56s-3.96,10.93-9.21,10.93c-1.88,0-3.02-.41-4.77-1.75v5.79c0,1.47-.04,1.83-.41,2.49-.45,.9-1.51,1.51-2.57,1.51s-2.16-.61-2.61-1.51c-.37-.69-.41-1.02-.41-2.49v-21.85Zm5.83,7.01c0,3.1,1.63,5.22,4.04,5.22s4.12-2.24,4.12-5.18-1.79-5.14-4.12-5.14-4.04,2.12-4.04,5.1Z"/><path class="cls-2" d="M252.58,94.84c.9,2.41,2.41,3.55,4.77,3.55,1.43,0,1.79-.12,4.93-1.67,.37-.16,.86-.29,1.3-.29,1.22,0,2.41,1.18,2.41,2.45,0,2.45-4.36,4.73-8.97,4.73-6.4,0-10.89-4.32-10.89-10.44s4.36-11.05,10.27-11.05c5.59,0,9.95,4.53,9.95,10.36,0,1.67-.77,2.36-2.61,2.36h-11.17Zm7.87-4.08c-.29-1.14-.49-1.63-.86-2.2-.69-.98-1.83-1.55-3.06-1.55-2,0-3.3,1.14-4.16,3.75h8.07Z"/><path class="cls-2" d="M287.69,101.36c0,6.48-4,10.4-10.64,10.4-2.61,0-5.14-.61-7.18-1.71-1.22-.69-1.83-1.55-1.83-2.73,0-1.43,1.22-2.61,2.73-2.61q.49,0,2.65,.73c1.26,.45,2.73,.73,3.71,.73,1.92,0,3.42-.73,4.08-2,.41-.73,.57-1.43,.69-3.3-1.63,2.08-2.85,2.73-5.01,2.73-5.34,0-9.17-4.4-9.17-10.56s4-10.93,9.25-10.93c2,0,3.22,.57,4.93,2.37,.86-1.63,1.63-2.24,2.89-2.24,1.71,0,2.89,1.35,2.89,3.3v15.82Zm-13.98-8.52c0,3.06,1.63,5.18,4.04,5.18s4.04-2.16,4.04-5.14-1.71-5.18-4.08-5.18-4,2.08-4,5.14Z"/><path class="cls-2" d="M291.2,85.67c0-2.08,1.18-3.43,3.02-3.43,1.35,0,2.32,.69,2.98,2.12,1.67-1.67,2.73-2.24,4.12-2.24,1.71,0,3.06,1.39,3.06,3.1,0,1.43-.61,2-3.06,2.73-3.26,1.1-4.2,2-4.12,4v7.54c0,1.43-.04,1.79-.41,2.49-.45,.9-1.51,1.51-2.57,1.51s-2.16-.61-2.61-1.51c-.37-.69-.41-1.02-.41-2.49v-13.82Z"/></g><g><path class="cls-2" d="M325.75,99.93c0,2.12-1.22,3.55-3.02,3.55-1.43,0-2.41-.77-3.02-2.36-1.51,1.88-2.73,2.49-4.93,2.49s-4.2-.78-5.91-2.28c-2.36-2.08-3.55-4.93-3.55-8.56,0-3.3,.98-5.79,3.14-7.91,1.79-1.79,3.91-2.73,6.24-2.73,2.12,0,3.38,.61,5.1,2.37,.65-1.59,1.55-2.24,2.98-2.24,1.67,0,2.98,1.35,2.98,3.06v14.64Zm-14.43-7.13c0,3.14,1.63,5.22,4.16,5.22s4.12-2.12,4.12-5.18-1.67-5.14-4.16-5.14-4.12,2.08-4.12,5.1Z"/><line class="cls-1" x1="169.61" x2="169.61" y2="107.28"/></g></svg>