<?xml version="1.0" standalone="no"?>
<!DOCTYPE svg PUBLIC "-//W3C//DTD SVG 20010904//EN"
 "http://www.w3.org/TR/2001/REC-SVG-20010904/DTD/svg10.dtd">
<svg version="1.0" xmlns="http://www.w3.org/2000/svg"
 width="260.000000pt" height="260.000000pt" viewBox="0 0 260.000000 260.000000"
 preserveAspectRatio="xMidYMid meet">
<metadata>
Created by potrace 1.14, written by Peter Selinger 2001-2017
</metadata>
<g transform="translate(0.000000,260.000000) scale(0.100000,-0.100000)"
fill="#000000" stroke="none">
<path d="M0 1300 l0 -1300 1300 0 1300 0 0 1300 0 1300 -1300 0 -1300 0 0
-1300z m1426 1105 c94 -46 150 -142 148 -255 -3 -158 -117 -273 -274 -274
-158 -1 -273 117 -273 279 0 215 206 344 399 250z m-688 -341 c15 -8 54 -57
87 -107 76 -117 125 -171 198 -218 169 -110 384 -110 553 -1 75 49 124 103
199 219 63 96 97 123 156 123 72 0 133 -64 133 -139 0 -48 -3 -53 -101 -204
-71 -110 -182 -213 -285 -266 l-27 -14 -3 -601 c-3 -562 -4 -603 -21 -628 -65
-96 -213 -78 -245 30 -8 25 -12 118 -12 256 l0 216 -70 0 -70 0 0 -216 c0
-138 -4 -231 -12 -256 -32 -108 -180 -126 -245 -30 -17 25 -18 66 -21 627 l-3
600 -69 44 c-98 63 -177 145 -266 278 -70 104 -78 120 -78 163 0 28 7 58 18
74 39 60 127 84 184 50z"/>
</g>
</svg>
